# xmcd
#
# Track frame offsets: 
#        150
#        18884
#        33413
#        47746
#        59586
#        70877
#        81076
#        91012
#        98915
#        108437
#        116838
#        125994
#
# Disc length: 1891 seconds
#
# Revision: 0
# Processed by: cddbd v1.5.2PL0 Copyright (c) Steve Scherf et al.
# Submitted via: ExactAudioCopyFreeDBPlugin 1.0
#
DISCID=a107610c
DTITLE=Ski King - The New King - The First Recording Sessions 2003
DYEAR=2014
DGENRE=Country
TTITLE0=Suspicious Minds
TTITLE1=Kentucky Rain
TTITLE2=Edge Of Reality
TTITLE3=In The Ghetto
TTITLE4=Little Sister
TTITLE5=Flaming Stars
TTITLE6=Devil In Disguise
TTITLE7=Teddy Bear
TTITLE8=Return To Sender
TTITLE9=All Shook Up
TTITLE10=Don´t Be Cruel
TTITLE11=My Way
EXTD=
EXTT0=
EXTT1=
EXTT2=
EXTT3=
EXTT4=
EXTT5=
EXTT6=
EXTT7=
EXTT8=
EXTT9=
EXTT10=
EXTT11=
PLAYORDER=
